<svg id="assist" xmlns="http://www.w3.org/2000/svg" viewBox="0 0 105.11 110.4"><defs><style>.cls-1{fill:#fff;}</style></defs><path class="cls-1" d="M113.78,76.18a8.21,8.21,0,0,0-7.19-3.56,11.47,11.47,0,0,0-4,1.41,30.69,30.69,0,0,0-2.79,1.79c-.77.55-2.11,1.74-2.47,1.45-.11-.09-.05-.33,1-2.79,2.88-7,15-37.33,15-37.33a9.3,9.3,0,0,0,.55-2.15A9.21,9.21,0,0,0,107,25a8.82,8.82,0,0,0-2.35-.31,8.27,8.27,0,0,0-1.11.07l1-2.62a8.81,8.81,0,0,0,.54-2.15,9.18,9.18,0,0,0-6.72-10A8.93,8.93,0,0,0,96,9.62a9.38,9.38,0,0,0-7.9,4.46,9.16,9.16,0,0,0-3.33-2.17,9,9,0,0,0-3.19-.59,9.13,9.13,0,0,0-5,1.53,9.56,9.56,0,0,0-3.9,5.87l-.4,1.73c-.47,2-.85,4.06-1.12,6.11-.46,3.48-.78,7.3,0,7.53,1.1.3,3.35-5.81,4.55-9.4,1.6-4.8,3.34-7.89,4.89-8.21a2.69,2.69,0,0,1,1-.16,4.07,4.07,0,0,1,1.54.31,4.33,4.33,0,0,1,2.25,5.56L79.8,35.9a37,37,0,0,0-2.75,14h0c-.41,4.78,1.3,6.44,2.92,1.63,1.33-3.93,3.87-12,4.7-14.23L92,17.5a4.41,4.41,0,0,1,4-2.88,4.18,4.18,0,0,1,3.87,5.67L84.68,60.69a2.59,2.59,0,0,0,1,3.14,2.53,2.53,0,0,0,1.3.36,2.51,2.51,0,0,0,2.35-1.62l11.31-30a4.38,4.38,0,0,1,4-2.88,3.72,3.72,0,0,1,1,.14,4.19,4.19,0,0,1,2.84,5.52L96.15,68.25h0s-4.87,12.15-6,15.69a1.5,1.5,0,0,0,1.43,1.94,1.63,1.63,0,0,0,.91-.29c1.28-.83,2.48-1.85,3.82-2.74a77.52,77.52,0,0,1,7.43-4.37,5.38,5.38,0,0,1,2.84-.86,3.91,3.91,0,0,1,3.35,1.78A4.33,4.33,0,0,1,109,85a53.79,53.79,0,0,0-9.21,7c-5.67,5.33-9.36,8.66-9.87,12.76-.18,1.52.43.84.86.62,1.32-.65,3.21-2.84,9.9-7.87,1.68-1.26,3.22-2.72,4.94-3.94l6.57-4.69A9.4,9.4,0,0,0,113.78,76.18Z" transform="translate(-10.45 -9.62)"/><path class="cls-1" d="M86.6,84.83l-9-21.37L62.85,24.19a4.58,4.58,0,0,0-5.39-2.91,4.46,4.46,0,0,0-3,5.88L64.51,53.78a2.48,2.48,0,0,1-1.36,3.16h0a2.48,2.48,0,0,1-3.29-1.41L45.47,18a4.58,4.58,0,0,0-5.75-2.6,4.46,4.46,0,0,0-2.6,5.74l10.93,29,3,8.07A2.5,2.5,0,0,1,46.36,60L30.2,16.35a4.59,4.59,0,0,0-5.4-2.91,4.46,4.46,0,0,0-3,5.87L38,62.4a2.67,2.67,0,1,1-5,1.88L21,32.34a4.58,4.58,0,0,0-5.39-2.91,4.45,4.45,0,0,0-3,5.87l13.19,35h0S31,83.24,32.13,87a1.6,1.6,0,0,1-2.48,1.75c-1.36-.88-2.64-2-4.06-2.92a89.42,89.42,0,0,0-7.91-4.65c-2.15-1.34-4.88-1.28-6.42.76a4.71,4.71,0,0,0,.87,6.23L38.33,110c.39.32,6.37,6.42,11.05,8.34a23.22,23.22,0,0,0,17.82-.08l6.93-2.91C86,110.33,90.31,97.39,86.6,84.83Z" transform="translate(-10.45 -9.62)"/></svg>