<svg id="goal" xmlns="http://www.w3.org/2000/svg" viewBox="0 0 128 120.67"><defs><style>.cls-1{fill:#fff;}.cls-2{fill:none;stroke:#fff;stroke-miterlimit:10;stroke-width:2px;}</style></defs><path class="cls-1" d="M102.52,68.27,113,60.18l-10.51-9.71,11.19-16.85-20,1.21L100.9,3.55,78.11,25.8,68.27,13.26l-9,12.54L37.12,5.17l7,30.34L30.38,37.8,34.7,51.28,0,59.63l34.56,9.45-8.63,15.5H43.19L31.06,124.22l28.18-31,9,31,9.71-31,15.64,9V84.31L128,93.62Zm-34.25,24A32.63,32.63,0,1,1,100.9,59.63,32.63,32.63,0,0,1,68.27,92.26Z" transform="translate(0 -3.55)"/><path class="cls-2" d="M78.81,32.69,68.43,39.18v9.57l10.37,7,9.7-2,2.72-11.45a33.87,33.87,0,0,0-12.4-9.57Z" transform="translate(0 -3.55)"/><polyline class="cls-2" points="78.41 23.45 78.81 29.14 68.43 35.63 58.53 29.14 59.49 23.8"/><path class="cls-2" d="M46.39,42.45a23.18,23.18,0,0,1,12.14-9.76l9.9,6.49v9.57L58,55.59,48.82,53Z" transform="translate(0 -3.55)"/><line class="cls-2" x1="39.35" y1="38.86" x2="46.39" y2="38.9"/><path class="cls-2" d="M58,55.59l3.25,14.3L56.84,75.6l-11.42-.45a18.2,18.2,0,0,1-4.88-14.77L48.82,53l-8.28,7.41-6-3.7" transform="translate(0 -3.55)"/><polygon class="cls-2" points="88.49 50.16 96.69 57.03 101.64 54.51 100.63 45.2 96.53 38.58 91.21 38.71 88.49 50.16"/><path class="cls-2" d="M78.79,55.73,76.06,70.09l4.19,5.51,12.59-.5a19.62,19.62,0,0,0,3.85-14.52l-8.2-6.87Z" transform="translate(0 -3.55)"/><polygon class="cls-2" points="92.84 71.55 93.3 78.47 87.08 86.31 79.81 87.22 76.06 83.43 80.25 72.05 92.84 71.55"/><path class="cls-2" d="M61.29,69.89l14.77.2,4.19,5.51L76.06,87a28.58,28.58,0,0,1-14.31,0L56.84,75.6Z" transform="translate(0 -3.55)"/><polygon class="cls-2" points="61.75 83.43 56.84 87.22 51.15 89.8 43.14 78.22 45.42 71.6 56.84 72.05 61.75 83.43"/></svg>