<svg id="save" xmlns="http://www.w3.org/2000/svg" viewBox="0 0 84.85 115.69"><defs><style>.cls-1{fill:#fff;}</style></defs><path class="cls-1" d="M24.25,55.81A42.11,42.11,0,0,0,19,73.35l4.53,2.8L33,67.7,30.26,55.84Z" transform="translate(-18.93 -3.15)"/><path class="cls-1" d="M81.51,47.46a42.64,42.64,0,0,0-7.17-4.29L62,50.87v11l12.49,8.41,11.27-2.35L89,54.48A43.55,43.55,0,0,0,81.51,47.46Z" transform="translate(-18.93 -3.15)"/><path class="cls-1" d="M26.43,88.71A22.48,22.48,0,0,0,30.85,96l7.81.31,5.88.23,2.57-3.3L49.5,90.2,45.57,72.89,35,69.9l-9.88,8.85A22.91,22.91,0,0,0,26.43,88.71Z" transform="translate(-18.93 -3.15)"/><path class="cls-1" d="M39.25,47.71a28.71,28.71,0,0,0-6.19,6.91L35.92,67l10.66,3L59,61.86v-11L47.28,43.13A29,29,0,0,0,39.25,47.71Z" transform="translate(-18.93 -3.15)"/><path class="cls-1" d="M77.21,99.56l-4.86,13.18,3.51,3.55a42.64,42.64,0,0,0,16-10.36L91.36,99Z" transform="translate(-18.93 -3.15)"/><path class="cls-1" d="M86.62,70.82,75.5,73.14,72.21,90.45l4.66,6.12L92,96A25,25,0,0,0,96.23,85.8a24.6,24.6,0,0,0,.19-6.75L93.26,76.4Z" transform="translate(-18.93 -3.15)"/><polygon class="cls-1" points="69.77 65.51 79.11 73.35 83.84 70.93 82.66 60.02 77.88 52.3 72.87 52.42 69.77 65.51"/><polygon class="cls-1" points="29.59 69.23 33.39 85.93 50.44 86.17 53.62 69.42 41.59 61.32 29.59 69.23"/><path class="cls-1" d="M75.67,40.49A47.21,47.21,0,0,1,83.29,45a46.38,46.38,0,0,1,8,7.54l5.12-.13a42.54,42.54,0,0,0-21-16.11Z" transform="translate(-18.93 -3.15)"/><path class="cls-1" d="M28.46,97.85a25.5,25.5,0,0,1-6.31-19l-3.22-2a42.18,42.18,0,0,0,8.26,24.74Z" transform="translate(-18.93 -3.15)"/><path class="cls-1" d="M30.66,52.84a32.24,32.24,0,0,1,6.71-7.47,31.91,31.91,0,0,1,8.77-5l.7-3.88A42.61,42.61,0,0,0,26.07,52.82Z" transform="translate(-18.93 -3.15)"/><path class="cls-1" d="M70.13,114.76a38.85,38.85,0,0,1-8.79,1.06h-.18a39.24,39.24,0,0,1-9.09-1.09l-3,2.29a42.42,42.42,0,0,0,23.55.28Z" transform="translate(-18.93 -3.15)"/><path class="cls-1" d="M49.12,40.75l11.44,7.5,12.12-7.58-.37-5.28a42.63,42.63,0,0,0-22.23.09Z" transform="translate(-18.93 -3.15)"/><path class="cls-1" d="M44.24,99.56l-13-.51-1.81,5.26a42.51,42.51,0,0,0,16.33,11.54l4.14-3.21Z" transform="translate(-18.93 -3.15)"/><path class="cls-1" d="M61.32,112.82a36.19,36.19,0,0,0,8.16-1l5-13.49-4.59-6-18-.25-2.35,3L47,98.33l1.24,2.88,4.58,10.63A36.46,36.46,0,0,0,61.32,112.82Z" transform="translate(-18.93 -3.15)"/><path class="cls-1" d="M99.43,79.16a27.51,27.51,0,0,1-.25,7.14A27.86,27.86,0,0,1,94.3,97.87l.32,4.87a42.28,42.28,0,0,0,9.16-25.81Z" transform="translate(-18.93 -3.15)"/><path class="cls-1" d="M59.17,3.15c-21.56,0-39,5.43-39,12.13s17.48,12.14,39,12.14,39-5.44,39-12.14S80.73,3.15,59.17,3.15Zm-.13,22c-16.56,0-30-4.44-30-9.91S42.48,5.37,59,5.37s30,4.44,30,9.91S75.59,25.19,59,25.19Z" transform="translate(-18.93 -3.15)"/></svg>