<svg id="score" xmlns="http://www.w3.org/2000/svg" viewBox="0 0 110.52 110.52"><defs><style>.cls-1{fill:#fff;}</style></defs><path class="cls-1" d="M64,32.37a7.61,7.61,0,0,0-6.87,4.28l-6,12.16L37.7,50.76a7.66,7.66,0,0,0-4.24,13.07l9.71,9.47L40.88,86.67A7.64,7.64,0,0,0,52,94.74l12-6.31,12,6.31a7.65,7.65,0,0,0,11.11-8.07L84.83,73.3l9.71-9.47A7.66,7.66,0,0,0,90.3,50.76L76.87,48.81l-6-12.16A7.61,7.61,0,0,0,64,32.37Z" transform="translate(-8.74 -8.74)"/><path class="cls-1" d="M64,16.74A47.26,47.26,0,1,1,16.74,64,47.26,47.26,0,0,1,64,16.74m0-8A55.26,55.26,0,1,0,119.26,64,55.32,55.32,0,0,0,64,8.74Z" transform="translate(-8.74 -8.74)"/></svg>