<svg id="shot" xmlns="http://www.w3.org/2000/svg" viewBox="0 0 110.4 110.43"><defs><style>.cls-1{fill:#fff;}</style></defs><path class="cls-1" d="M15.72,37.22A54.73,54.73,0,0,0,9,60l5.89,3.64,12.26-11L23.54,37.26Z" transform="translate(-8.8 -8.79)"/><path class="cls-1" d="M90.22,26.35a57.47,57.47,0,0,0-9.32-5.58l-16,10V45.1L81.13,56l14.65-3,4.16-17.5A57.23,57.23,0,0,0,90.22,26.35Z" transform="translate(-8.8 -8.79)"/><path class="cls-1" d="M18.56,80a29.35,29.35,0,0,0,5.74,9.52l10.17.4,7.65.31L45.46,86l3.11-4L43.46,59.45l-13.7-3.9L16.91,67.06A29.74,29.74,0,0,0,18.56,80Z" transform="translate(-8.8 -8.79)"/><path class="cls-1" d="M35.24,26.68a37.54,37.54,0,0,0-8.06,9l3.73,16.14,13.87,3.95L61,45.09V30.76l-15.3-10A37.73,37.73,0,0,0,35.24,26.68Z" transform="translate(-8.8 -8.79)"/><path class="cls-1" d="M84.62,94.14,78.3,111.29l4.57,4.61a55.29,55.29,0,0,0,20.76-13.47l-.59-9Z" transform="translate(-8.8 -8.79)"/><path class="cls-1" d="M96.86,56.75l-14.46,3L78.11,82.29l6.07,8,19.66-.79a32.35,32.35,0,0,0,5.53-13.23,31.78,31.78,0,0,0,.25-8.77L105.51,64Z" transform="translate(-8.8 -8.79)"/><polygon class="cls-1" points="90.77 45.14 102.92 55.34 109.08 52.2 107.54 38 101.33 27.96 94.81 28.12 90.77 45.14"/><polygon class="cls-1" points="38.51 49.98 43.44 71.72 65.62 72.02 69.76 50.24 54.11 39.7 38.51 49.98"/><path class="cls-1" d="M82.62,17.29a60.09,60.09,0,0,1,9.91,5.92A60.76,60.76,0,0,1,102.93,33l6.66-.17a55.35,55.35,0,0,0-27.34-21Z" transform="translate(-8.8 -8.79)"/><path class="cls-1" d="M21.2,91.92A33.14,33.14,0,0,1,13,67.13L8.8,64.54A55,55,0,0,0,19.54,96.73Z" transform="translate(-8.8 -8.79)"/><path class="cls-1" d="M24.06,33.36A40.92,40.92,0,0,1,44.21,17.14l.91-5a55.41,55.41,0,0,0-27,21.23Z" transform="translate(-8.8 -8.79)"/><path class="cls-1" d="M75.41,113.92A51.28,51.28,0,0,1,64,115.3h-.22a50.64,50.64,0,0,1-11.83-1.42l-3.89,3a55.43,55.43,0,0,0,30.65.37Z" transform="translate(-8.8 -8.79)"/><path class="cls-1" d="M48.08,17.63,63,27.39l15.77-9.87-.48-6.87a55.46,55.46,0,0,0-28.93.12Z" transform="translate(-8.8 -8.79)"/><path class="cls-1" d="M41.73,94.15l-16.94-.68-2.35,6.85a55.27,55.27,0,0,0,21.24,15l5.39-4.17Z" transform="translate(-8.8 -8.79)"/><path class="cls-1" d="M64,111.39a46.76,46.76,0,0,0,10.6-1.26L81,92.58l-6-7.86L51.63,84.4l-3.05,3.91-3.29,4.22,1.62,3.76,6,13.83A47.47,47.47,0,0,0,64,111.39Z" transform="translate(-8.8 -8.79)"/><path class="cls-1" d="M113.53,67.59a35.72,35.72,0,0,1-.32,9.3,36.25,36.25,0,0,1-6.36,15l.42,6.34A55,55,0,0,0,119.2,64.7Z" transform="translate(-8.8 -8.79)"/></svg>